<svg xmlns="http://www.w3.org/2000/svg" xmlns:xlink="http://www.w3.org/1999/xlink" width="500" zoomAndPan="magnify" viewBox="0 0 375 95.249998" height="127" preserveAspectRatio="xMidYMid meet" version="1.0"><defs><g/><clipPath id="c48c1a4d7d"><path d="M 287.644531 7.746094 L 373.222656 7.746094 L 373.222656 94.503906 L 287.644531 94.503906 Z M 287.644531 7.746094 " clip-rule="nonzero"/></clipPath><clipPath id="4a36d3fb08"><path d="M 313.777344 68 L 347.265625 68 L 347.265625 76 L 313.777344 76 Z M 313.777344 68 " clip-rule="nonzero"/></clipPath><clipPath id="789455aa32"><path d="M 327 54.847656 L 334 54.847656 L 334 88.332031 L 327 88.332031 Z M 327 54.847656 " clip-rule="nonzero"/></clipPath></defs><g clip-path="url(#c48c1a4d7d)"><path fill="#023e8a" d="M 372.632812 39.109375 L 298.054688 39.109375 L 370.085938 19.8125 C 370.554688 19.691406 370.832031 19.203125 370.710938 18.738281 L 367.972656 8.515625 C 367.851562 8.046875 367.367188 7.769531 366.898438 7.890625 L 288.390625 28.921875 C 287.921875 29.042969 287.644531 29.53125 287.765625 29.996094 L 290.46875 40.097656 L 290.46875 90.941406 C 290.46875 92.882812 292.046875 94.476562 294.003906 94.476562 L 370 94.476562 C 371.941406 94.476562 373.535156 92.898438 373.535156 90.941406 L 373.535156 39.976562 C 373.519531 39.507812 373.121094 39.109375 372.632812 39.109375 Z M 372.632812 39.109375 " fill-opacity="1" fill-rule="nonzero"/></g><path fill="#ffffff" d="M 365.238281 19.292969 L 358.949219 11.84375 L 349.523438 14.371094 L 355.8125 21.804688 Z M 365.238281 19.292969 " fill-opacity="1" fill-rule="nonzero"/><path fill="#ffffff" d="M 346.390625 24.332031 L 340.101562 16.882812 L 330.675781 19.414062 L 336.964844 26.863281 Z M 346.390625 24.332031 " fill-opacity="1" fill-rule="nonzero"/><path fill="#ffffff" d="M 327.539062 29.390625 L 321.253906 21.941406 L 311.828125 24.472656 L 318.117188 31.902344 Z M 327.539062 29.390625 " fill-opacity="1" fill-rule="nonzero"/><path fill="#ffffff" d="M 308.691406 34.433594 L 302.40625 27 L 292.980469 29.511719 L 299.285156 36.960938 Z M 308.691406 34.433594 " fill-opacity="1" fill-rule="nonzero"/><path fill="#ffffff" d="M 295.890625 49.695312 L 305.660156 49.695312 L 309.800781 40.875 L 300.046875 40.875 Z M 295.890625 49.695312 " fill-opacity="1" fill-rule="nonzero"/><path fill="#ffffff" d="M 315.414062 49.695312 L 325.167969 49.695312 L 329.308594 40.875 L 319.554688 40.875 Z M 315.414062 49.695312 " fill-opacity="1" fill-rule="nonzero"/><path fill="#ffffff" d="M 334.921875 49.695312 L 344.675781 49.695312 L 348.832031 40.875 L 339.078125 40.875 Z M 334.921875 49.695312 " fill-opacity="1" fill-rule="nonzero"/><path fill="#ffffff" d="M 358.585938 40.875 L 354.425781 49.695312 L 364.199219 49.695312 L 368.339844 40.875 Z M 358.585938 40.875 " fill-opacity="1" fill-rule="nonzero"/><g clip-path="url(#4a36d3fb08)"><path fill="#ffffff" d="M 345.710938 75.015625 L 315.457031 75.015625 C 314.449219 75.015625 313.777344 74.34375 313.777344 73.335938 L 313.777344 69.972656 C 313.777344 68.964844 314.449219 68.292969 315.457031 68.292969 L 345.710938 68.292969 C 346.71875 68.292969 347.390625 68.964844 347.390625 69.972656 L 347.390625 73.335938 C 347.390625 74.34375 346.71875 75.015625 345.710938 75.015625 Z M 345.710938 75.015625 " fill-opacity="1" fill-rule="nonzero"/></g><g clip-path="url(#789455aa32)"><path fill="#ffffff" d="M 327.222656 86.78125 L 327.222656 56.527344 C 327.222656 55.519531 327.894531 54.847656 328.902344 54.847656 L 332.265625 54.847656 C 333.273438 54.847656 333.945312 55.519531 333.945312 56.527344 L 333.945312 86.78125 C 333.945312 87.789062 333.273438 88.460938 332.265625 88.460938 L 328.902344 88.460938 C 327.894531 88.460938 327.222656 87.789062 327.222656 86.78125 Z M 327.222656 86.78125 " fill-opacity="1" fill-rule="nonzero"/></g><g fill="#023e8a" fill-opacity="1"><g transform="translate(1.464848, 79.623043)"><g><path d="M 32.765625 -57.15625 C 35.929688 -57.15625 38.625 -56.703125 40.84375 -55.796875 C 43.0625 -54.898438 45.222656 -53.632812 47.328125 -52 C 47.859375 -51.53125 48.363281 -51.296875 48.84375 -51.296875 C 49.894531 -51.296875 50.578125 -52.878906 50.890625 -56.046875 L 52.71875 -56.046875 C 52.507812 -52.296875 52.40625 -45.695312 52.40625 -36.25 L 50.578125 -36.25 C 50.210938 -40.476562 49.523438 -43.804688 48.515625 -46.234375 C 47.515625 -48.660156 45.773438 -50.691406 43.296875 -52.328125 C 40.816406 -53.910156 38.363281 -54.703125 35.9375 -54.703125 C 30.445312 -54.703125 26.59375 -52.0625 24.375 -46.78125 C 22.164062 -41.5 21.0625 -35.191406 21.0625 -27.859375 C 21.0625 -20.523438 22.164062 -14.21875 24.375 -8.9375 C 26.59375 -3.664062 30.445312 -1.03125 35.9375 -1.03125 C 38.363281 -1.03125 40.816406 -1.820312 43.296875 -3.40625 C 45.773438 -4.9375 47.515625 -6.992188 48.515625 -9.578125 C 49.523438 -12.160156 50.210938 -15.828125 50.578125 -20.578125 L 52.40625 -20.578125 C 52.40625 -10.710938 52.507812 -3.851562 52.71875 0 L 50.890625 0 C 50.734375 -1.6875 50.507812 -2.882812 50.21875 -3.59375 C 49.9375 -4.3125 49.53125 -4.671875 49 -4.671875 C 48.570312 -4.671875 48.015625 -4.457031 47.328125 -4.03125 C 44.953125 -2.34375 42.679688 -1.0625 40.515625 -0.1875 C 38.359375 0.675781 35.75 1.109375 32.6875 1.109375 C 26.726562 1.109375 21.503906 -0.0234375 17.015625 -2.296875 C 12.535156 -4.566406 9.050781 -7.851562 6.5625 -12.15625 C 4.082031 -16.457031 2.84375 -21.585938 2.84375 -27.546875 C 2.84375 -33.347656 4.109375 -38.488281 6.640625 -42.96875 C 9.179688 -47.457031 12.71875 -50.941406 17.25 -53.421875 C 21.789062 -55.910156 26.960938 -57.15625 32.765625 -57.15625 Z M 32.765625 -57.15625 "/></g></g></g><g fill="#023e8a" fill-opacity="1"><g transform="translate(58.212822, 79.623043)"><g><path d="M 12.734375 -61.90625 C 15.484375 -61.90625 17.609375 -61.320312 19.109375 -60.15625 C 20.617188 -59 21.375 -57.3125 21.375 -55.09375 C 21.375 -52.875 20.617188 -51.179688 19.109375 -50.015625 C 17.609375 -48.859375 15.484375 -48.28125 12.734375 -48.28125 C 9.941406 -48.28125 7.804688 -48.859375 6.328125 -50.015625 C 4.847656 -51.179688 4.109375 -52.875 4.109375 -55.09375 C 4.109375 -57.3125 4.847656 -59 6.328125 -60.15625 C 7.804688 -61.320312 9.941406 -61.90625 12.734375 -61.90625 Z M 20.34375 -7.359375 C 20.34375 -5.191406 20.671875 -3.695312 21.328125 -2.875 C 21.992188 -2.0625 23.144531 -1.65625 24.78125 -1.65625 L 24.78125 0 C 19.082031 -0.207031 15.332031 -0.3125 13.53125 -0.3125 C 11.738281 -0.3125 7.78125 -0.207031 1.65625 0 L 1.65625 -1.65625 C 3.289062 -1.65625 4.4375 -2.0625 5.09375 -2.875 C 5.757812 -3.695312 6.09375 -5.191406 6.09375 -7.359375 L 6.09375 -32.453125 C 6.09375 -34.878906 5.757812 -36.644531 5.09375 -37.75 C 4.4375 -38.863281 3.289062 -39.421875 1.65625 -39.421875 L 1.65625 -41.078125 C 3.34375 -40.921875 4.976562 -40.84375 6.5625 -40.84375 C 12.050781 -40.84375 16.644531 -41.210938 20.34375 -41.953125 Z M 20.34375 -7.359375 "/></g></g></g><g fill="#023e8a" fill-opacity="1"><g transform="translate(84.331139, 79.623043)"><g><path d="M 32.921875 -42.1875 C 37.148438 -42.1875 40.132812 -41.132812 41.875 -39.03125 C 42.664062 -38.070312 43.242188 -36.785156 43.609375 -35.171875 C 43.984375 -33.566406 44.171875 -31.445312 44.171875 -28.8125 L 44.171875 -7.359375 C 44.171875 -5.191406 44.5 -3.695312 45.15625 -2.875 C 45.8125 -2.0625 46.960938 -1.65625 48.609375 -1.65625 L 48.609375 0 C 42.898438 -0.207031 39.203125 -0.3125 37.515625 -0.3125 C 35.722656 -0.3125 31.976562 -0.207031 26.28125 0 L 26.28125 -1.65625 C 27.65625 -1.65625 28.601562 -2.0625 29.125 -2.875 C 29.65625 -3.695312 29.921875 -5.191406 29.921875 -7.359375 L 29.921875 -33.09375 C 29.921875 -34.78125 29.613281 -36.03125 29 -36.84375 C 28.394531 -37.664062 27.410156 -38.078125 26.046875 -38.078125 C 24.515625 -38.078125 23.179688 -37.535156 22.046875 -36.453125 C 20.910156 -35.367188 20.34375 -34.007812 20.34375 -32.375 L 20.34375 -7.359375 C 20.34375 -5.191406 20.601562 -3.695312 21.125 -2.875 C 21.65625 -2.0625 22.609375 -1.65625 23.984375 -1.65625 L 23.984375 0 C 18.703125 -0.207031 15.21875 -0.3125 13.53125 -0.3125 C 11.738281 -0.3125 7.78125 -0.207031 1.65625 0 L 1.65625 -1.65625 C 3.289062 -1.65625 4.4375 -2.0625 5.09375 -2.875 C 5.757812 -3.695312 6.09375 -5.191406 6.09375 -7.359375 L 6.09375 -32.453125 C 6.09375 -34.878906 5.757812 -36.644531 5.09375 -37.75 C 4.4375 -38.863281 3.289062 -39.421875 1.65625 -39.421875 L 1.65625 -41.078125 C 3.34375 -40.921875 4.976562 -40.84375 6.5625 -40.84375 C 12.050781 -40.84375 16.644531 -41.210938 20.34375 -41.953125 L 20.34375 -36.25 C 22.71875 -40.207031 26.910156 -42.1875 32.921875 -42.1875 Z M 32.921875 -42.1875 "/></g></g></g><g fill="#023e8a" fill-opacity="1"><g transform="translate(133.797639, 79.623043)"><g><path d="M 26.359375 -7.515625 C 30.210938 -7.515625 33.40625 -9.285156 35.9375 -12.828125 L 37.28125 -12.34375 C 36.125 -8.65625 34.160156 -5.488281 31.390625 -2.84375 C 28.617188 -0.207031 25.066406 1.109375 20.734375 1.109375 C 15.191406 1.109375 10.757812 -0.601562 7.4375 -4.03125 C 4.113281 -7.46875 2.453125 -12.957031 2.453125 -20.5 C 2.453125 -27.726562 4.3125 -33.148438 8.03125 -36.765625 C 11.75 -40.378906 16.671875 -42.1875 22.796875 -42.1875 C 32.765625 -42.1875 37.75 -36.273438 37.75 -24.453125 L 17.328125 -24.453125 C 17.273438 -23.828125 17.25 -22.878906 17.25 -21.609375 C 17.25 -16.546875 18.132812 -12.929688 19.90625 -10.765625 C 21.675781 -8.597656 23.828125 -7.515625 26.359375 -7.515625 Z M 22.25 -40.375 C 19.289062 -40.375 17.546875 -35.570312 17.015625 -25.96875 L 26.203125 -25.96875 C 26.253906 -30.1875 25.945312 -33.640625 25.28125 -36.328125 C 24.625 -39.023438 23.613281 -40.375 22.25 -40.375 Z M 22.25 -40.375 "/></g></g></g><g fill="#023e8a" fill-opacity="1"><g transform="translate(173.608285, 79.623043)"><g><path d="M 67.203125 -7.359375 C 67.203125 -5.191406 67.53125 -3.695312 68.1875 -2.875 C 68.851562 -2.0625 70.003906 -1.65625 71.640625 -1.65625 L 71.640625 0 C 65.941406 -0.207031 62.242188 -0.3125 60.546875 -0.3125 C 58.859375 -0.3125 55.378906 -0.207031 50.109375 0 L 50.109375 -1.65625 C 51.160156 -1.65625 51.894531 -2.050781 52.3125 -2.84375 C 52.738281 -3.632812 52.953125 -5.140625 52.953125 -7.359375 L 52.953125 -33.09375 C 52.953125 -34.78125 52.648438 -36.03125 52.046875 -36.84375 C 51.441406 -37.664062 50.453125 -38.078125 49.078125 -38.078125 C 47.703125 -38.078125 46.445312 -37.492188 45.3125 -36.328125 C 44.175781 -35.171875 43.476562 -33.800781 43.21875 -32.21875 C 43.320312 -30.945312 43.375 -29.8125 43.375 -28.8125 L 43.375 -7.359375 C 43.375 -5.140625 43.632812 -3.632812 44.15625 -2.84375 C 44.6875 -2.050781 45.640625 -1.65625 47.015625 -1.65625 L 47.015625 0 C 41.742188 -0.207031 38.316406 -0.3125 36.734375 -0.3125 C 35.046875 -0.3125 31.5625 -0.207031 26.28125 0 L 26.28125 -1.65625 C 27.332031 -1.65625 28.066406 -2.0625 28.484375 -2.875 C 28.910156 -3.695312 29.125 -5.191406 29.125 -7.359375 L 29.125 -33.09375 C 29.125 -34.78125 28.882812 -36.03125 28.40625 -36.84375 C 27.9375 -37.664062 27.148438 -38.078125 26.046875 -38.078125 C 24.515625 -38.078125 23.179688 -37.535156 22.046875 -36.453125 C 20.910156 -35.367188 20.34375 -34.007812 20.34375 -32.375 L 20.34375 -7.359375 C 20.34375 -5.140625 20.550781 -3.632812 20.96875 -2.84375 C 21.394531 -2.050781 22.132812 -1.65625 23.1875 -1.65625 L 23.1875 0 C 18.332031 -0.207031 15.113281 -0.3125 13.53125 -0.3125 C 11.738281 -0.3125 7.78125 -0.207031 1.65625 0 L 1.65625 -1.65625 C 3.289062 -1.65625 4.4375 -2.0625 5.09375 -2.875 C 5.757812 -3.695312 6.09375 -5.191406 6.09375 -7.359375 L 6.09375 -32.453125 C 6.09375 -34.878906 5.757812 -36.644531 5.09375 -37.75 C 4.4375 -38.863281 3.289062 -39.421875 1.65625 -39.421875 L 1.65625 -41.078125 C 3.34375 -40.921875 4.976562 -40.84375 6.5625 -40.84375 C 12.050781 -40.84375 16.644531 -41.210938 20.34375 -41.953125 L 20.34375 -36.25 C 22.5625 -40.207031 26.492188 -42.1875 32.140625 -42.1875 C 36.359375 -42.1875 39.335938 -41.132812 41.078125 -39.03125 C 41.867188 -38.070312 42.453125 -36.828125 42.828125 -35.296875 C 44.140625 -37.835938 45.890625 -39.617188 48.078125 -40.640625 C 50.273438 -41.671875 52.90625 -42.1875 55.96875 -42.1875 C 60.1875 -42.1875 63.164062 -41.132812 64.90625 -39.03125 C 65.695312 -38.070312 66.273438 -36.785156 66.640625 -35.171875 C 67.015625 -33.566406 67.203125 -31.445312 67.203125 -28.8125 Z M 67.203125 -7.359375 "/></g></g></g><g fill="#023e8a" fill-opacity="1"><g transform="translate(246.106399, 79.623043)"><g><path d="M 11.953125 0.546875 C 8.578125 0.546875 6.03125 -0.359375 4.3125 -2.171875 C 2.59375 -3.992188 1.734375 -6.28125 1.734375 -9.03125 C 1.734375 -11.394531 2.351562 -13.351562 3.59375 -14.90625 C 4.84375 -16.46875 6.3125 -17.671875 8 -18.515625 C 9.6875 -19.359375 11.875 -20.234375 14.5625 -21.140625 C 17.414062 -22.085938 19.5 -22.957031 20.8125 -23.75 C 22.132812 -24.539062 22.796875 -25.648438 22.796875 -27.078125 L 22.796875 -34.109375 C 22.796875 -35.804688 22.375 -37.3125 21.53125 -38.625 C 20.6875 -39.945312 19.234375 -40.609375 17.171875 -40.609375 C 15.535156 -40.609375 14.0625 -40.160156 12.75 -39.265625 C 14.539062 -38.628906 15.867188 -37.691406 16.734375 -36.453125 C 17.609375 -35.210938 18.046875 -33.828125 18.046875 -32.296875 C 18.046875 -30.234375 17.316406 -28.582031 15.859375 -27.34375 C 14.410156 -26.101562 12.660156 -25.484375 10.609375 -25.484375 C 8.546875 -25.484375 6.921875 -26.128906 5.734375 -27.421875 C 4.546875 -28.710938 3.953125 -30.363281 3.953125 -32.375 C 3.953125 -33.957031 4.347656 -35.328125 5.140625 -36.484375 C 5.929688 -37.648438 7.171875 -38.707031 8.859375 -39.65625 C 11.816406 -41.34375 16.039062 -42.1875 21.53125 -42.1875 C 24.4375 -42.1875 26.941406 -41.910156 29.046875 -41.359375 C 31.160156 -40.804688 32.957031 -39.765625 34.4375 -38.234375 C 35.488281 -37.117188 36.1875 -35.726562 36.53125 -34.0625 C 36.875 -32.40625 37.046875 -30.101562 37.046875 -27.15625 L 37.046875 -5.9375 C 37.046875 -4.613281 37.132812 -3.710938 37.3125 -3.234375 C 37.5 -2.765625 37.832031 -2.53125 38.3125 -2.53125 C 38.675781 -2.53125 39.066406 -2.648438 39.484375 -2.890625 C 39.910156 -3.128906 40.3125 -3.40625 40.6875 -3.71875 L 41.484375 -2.375 C 39.210938 -0.425781 35.960938 0.546875 31.734375 0.546875 C 28.578125 0.546875 26.363281 0.0078125 25.09375 -1.0625 C 23.820312 -2.144531 23.132812 -3.613281 23.03125 -5.46875 C 20.550781 -1.457031 16.859375 0.546875 11.953125 0.546875 Z M 19.875 -5.78125 C 20.976562 -5.78125 21.953125 -6.226562 22.796875 -7.125 L 22.796875 -23.828125 C 22.316406 -23.035156 21.445312 -22.003906 20.1875 -20.734375 C 18.757812 -19.367188 17.675781 -18.035156 16.9375 -16.734375 C 16.195312 -15.441406 15.828125 -13.691406 15.828125 -11.484375 C 15.828125 -7.679688 17.175781 -5.78125 19.875 -5.78125 Z M 19.875 -5.78125 "/></g></g></g></svg>